<?xml version="1.0" encoding="iso-8859-1"?><!-- Generator: Adobe Illustrator 16.0.0, SVG Export Plug-In . SVG Version: 6.00 Build 0) --><!DOCTYPE svg PUBLIC "-//W3C//DTD SVG 1.1//EN" "http://www.w3.org/Graphics/SVG/1.1/DTD/svg11.dtd"><svg version="1.1" id="Layer_1" xmlns="http://www.w3.org/2000/svg" xmlns:xlink="http://www.w3.org/1999/xlink" x="0px" y="0px" width="595.279px" height="580.398px" viewBox="0 130.746 595.279 580.398" style="enable-background:new 0 130.746 595.279 580.398;" xml:space="preserve"><radialGradient id="SVGID_1_" cx="-183.6897" cy="328.9722" r="0.76" gradientTransform="matrix(545.6736 0 0 528.3113 100439.3047 -173525.125)" gradientUnits="userSpaceOnUse"><stop offset="0" style="stop-color:#39464D;stop-opacity:0.98"/><stop offset="1" style="stop-color:#05151F"/></radialGradient><path style="fill:url(#SVGID_1_);" d="M24.803,155.549h545.674v530.792H24.803V155.549z"/><path style="fill:#AAD1EB;" d="M24.803,155.549h545.674v530.792H24.803V155.549z M0,711.145H595.28V130.746H0V711.145z M348.487,375.059c0-2.977,0-10.169-1.24-24.06c0-1.984,0.496-2.48,1.984-3.224c15.13-6.201,51.095-17.114,91.276-17.114	c1.984,0,2.977,0.496,2.977,2.48v35.717c0,1.984-0.744,2.48-2.977,2.48c-15.626-0.744-38.693,1.24-47.374,4.96v156.51	c0,1.984-0.744,2.976-2.977,2.976h-38.941c-1.984,0-2.977-0.744-2.977-2.976v-157.75H348.487L348.487,375.059z M164.943,535.784	c-2.977,0-3.721-1.239-3.721-3.72V265.428c0-1.984,0.744-3.225,2.977-3.225h39.188c1.984,0,2.48,0.744,2.48,2.977v229.679h102.189	c1.984,0,2.729,0.744,2.232,2.977l-6.2,35.221c-0.496,1.983-1.736,2.976-3.721,2.976H164.943V535.784L164.943,535.784z"/></svg>