<?xml version="1.0" encoding="iso-8859-1"?><!-- Generator: Adobe Illustrator 16.0.0, SVG Export Plug-In . SVG Version: 6.00 Build 0) --><!DOCTYPE svg PUBLIC "-//W3C//DTD SVG 1.1//EN" "http://www.w3.org/Graphics/SVG/1.1/DTD/svg11.dtd"><svg version="1.1" id="Layer_1" xmlns="http://www.w3.org/2000/svg" xmlns:xlink="http://www.w3.org/1999/xlink" x="0px" y="0px" width="595.279px" height="580.398px" viewBox="0 130.746 595.279 580.398" style="enable-background:new 0 130.746 595.279 580.398;" xml:space="preserve"><radialGradient id="SVGID_1_" cx="-183.6897" cy="328.9722" r="0.76" gradientTransform="matrix(545.6736 0 0 528.3113 100439.3047 -173525.125)" gradientUnits="userSpaceOnUse"><stop offset="0" style="stop-color:#34364E;stop-opacity:0.98"/><stop offset="1" style="stop-color:#0C0824"/></radialGradient><path style="fill:url(#SVGID_1_);" d="M24.803,155.549h545.674v530.792H24.803V155.549z"/><path style="fill:#31C5F0;" d="M24.803,155.549h545.674v530.792H24.803V155.549z M0,711.145H595.28V130.746H0V711.145z M401.318,368.858c-19.595,0-26.291,9.921-26.291,18.106c0,8.929,4.464,15.13,30.756,28.772	c38.941,18.851,51.095,36.957,51.095,63.497c0,39.685-30.26,61.016-71.186,61.016c-21.579,0-40.182-4.465-50.847-10.665	c-1.736-0.744-1.984-1.984-1.984-3.969v-36.461c0-2.48,1.24-3.225,2.977-1.984c15.626,10.17,33.484,14.634,49.854,14.634	c19.595,0,27.78-8.185,27.78-19.347c0-8.929-5.705-16.866-30.757-29.764c-35.221-16.866-49.854-33.98-49.854-62.504	c0-31.997,25.052-58.536,68.457-58.536c21.331,0,36.213,3.225,44.398,6.945c1.984,1.24,2.48,3.224,2.48,4.96v33.98	c0,1.984-1.24,3.225-3.721,2.48C433.562,373.075,417.44,368.858,401.318,368.858L401.318,368.858z M188.009,398.374	c5.705,0.496,10.17,0.496,20.091,0.496c29.021,0,56.304-10.169,56.304-49.606c0-31.5-19.595-47.375-52.583-47.375	c-9.921,0-19.347,0.496-23.812,0.744V398.374L188.009,398.374z M143.86,266.668c0-1.736,3.473-2.977,5.456-2.977	c15.875-0.744,39.438-1.24,63.993-1.24c68.705,0,95.492,37.701,95.492,85.82c0,63-45.638,90.036-101.693,90.036	c-9.425,0-12.649-0.496-19.347-0.496v95.245c0,1.984-0.744,2.976-2.976,2.976h-37.949c-1.984,0-2.977-0.744-2.977-2.976V266.668z"/></svg>