<?xml version="1.0" encoding="iso-8859-1"?>
<!-- Generator: Adobe Illustrator 16.0.0, SVG Export Plug-In . SVG Version: 6.00 Build 0)  -->
<!DOCTYPE svg PUBLIC "-//W3C//DTD SVG 1.1//EN" "http://www.w3.org/Graphics/SVG/1.1/DTD/svg11.dtd">
<svg version="1.1" id="Layer_1" xmlns="http://www.w3.org/2000/svg" xmlns:xlink="http://www.w3.org/1999/xlink" x="0px" y="0px"
	 width="595.279px" height="580.398px" viewBox="0 130.746 595.279 580.398"
	 style="enable-background:new 0 130.746 595.279 580.398;" xml:space="preserve">
<radialGradient id="SVGID_1_" cx="-183.6897" cy="328.9722" r="0.76" gradientTransform="matrix(545.6736 0 0 528.3113 100439.3047 -173525.125)" gradientUnits="userSpaceOnUse">
	<stop  offset="0" style="stop-color:#423325;stop-opacity:0.98"/>
	<stop  offset="1" style="stop-color:#1C0A00"/>
</radialGradient>
<path style="fill:url(#SVGID_1_);" d="M24.803,155.549h545.674v530.792H24.803V155.549z"/>
<path style="fill:#FF7F18;" d="M24.803,155.549h545.674v530.792H24.803V155.549z M0,711.145H595.28V130.746H0V711.145z
	 M389.908,337.606c0-1.984,0.744-2.977,2.977-2.977h38.941c1.983,0,2.976,0.744,2.976,2.977v195.699
	c0,1.983-0.496,2.976-2.976,2.976h-38.445c-2.48,0-3.225-1.24-3.225-3.224V337.606H389.908L389.908,337.606z M387.18,281.302
	c0-15.874,11.161-25.299,25.3-25.299c15.13,0,25.299,10.169,25.299,25.299c0,16.37-10.665,25.299-25.795,25.299
	C397.597,306.602,387.18,297.672,387.18,281.302z M275.565,419.209c-6.944-27.532-23.314-87.556-29.516-116.576h-0.496
	c-5.209,29.02-18.354,78.13-28.771,116.576H275.565L275.565,419.209z M206.612,459.391l-19.595,74.41
	c-0.496,1.983-1.24,2.479-3.72,2.479h-36.461c-2.48,0-2.977-0.744-2.48-3.72l70.441-246.546c1.24-4.464,1.984-8.433,2.48-20.586
	c0-1.736,0.744-2.48,1.984-2.48h52.087c1.736,0,2.48,0.496,2.977,2.48l78.874,267.628c0.496,1.983,0,3.224-1.984,3.224h-41.174
	c-1.984,0-3.225-0.496-3.72-2.231l-20.339-74.658H206.612L206.612,459.391z"/>
</svg>
