<?xml version="1.0" encoding="utf-8"?>
<!-- Generator: Adobe Illustrator 19.2.1, SVG Export Plug-In . SVG Version: 6.00 Build 0)  -->
<svg version="1.1" id="Layer_1" xmlns="http://www.w3.org/2000/svg" xmlns:xlink="http://www.w3.org/1999/xlink" x="0px" y="0px"
	 viewBox="0 0 79 79" style="enable-background:new 0 0 79 79;" xml:space="preserve">
<style type="text/css">
	.st0{fill:#47848F;}
</style>
<g>
	<g>
		<path class="st0" d="M28.9,17.3c-10.2-1.9-18.2,0.1-21.5,5.6c-2.4,4.2-1.7,9.7,1.7,15.5c0.3,0.5,0.9,0.7,1.4,0.4
			c0.5-0.3,0.7-0.9,0.4-1.4c-3-5.3-3.6-10-1.7-13.5c2.7-4.6,9.9-6.4,19.3-4.6c0.6,0.1,1.1-0.3,1.2-0.8S29.5,17.4,28.9,17.3
			L28.9,17.3L28.9,17.3z M14.4,45.6c4.1,4.5,9.5,8.8,15.6,12.3c14.8,8.5,30.5,10.8,38.3,5.5c0.5-0.3,0.6-1,0.3-1.5s-1-0.6-1.5-0.3
			c-6.9,4.7-21.9,2.6-36.1-5.6c-5.9-3.4-11.1-7.5-15.1-11.9c-0.4-0.4-1-0.5-1.5-0.1C14.1,44.5,14,45.2,14.4,45.6L14.4,45.6
			L14.4,45.6z"/>
		<path class="st0" d="M65.8,44.3c6.7-7.9,9-15.8,5.8-21.4c-2.4-4.1-7.3-6.2-14-6.3c-0.6,0-1.1,0.5-1.1,1c0,0.6,0.5,1.1,1,1.1
			c6,0.1,10.3,1.9,12.2,5.3c2.7,4.6,0.6,11.7-5.6,19c-0.4,0.4-0.3,1.1,0.1,1.5C64.8,44.8,65.4,44.8,65.8,44.3L65.8,44.3L65.8,44.3z
			 M48.6,17.6c-6,1.3-12.5,3.8-18.6,7.4C14.8,33.8,4.8,46.8,6.2,56.2c0.1,0.6,0.6,1,1.2,0.9c0.6-0.1,1-0.6,0.9-1.2
			C7,47.6,16.5,35.2,31.1,26.8c6-3.5,12.2-5.9,18-7.1c0.6-0.1,0.9-0.7,0.8-1.2C49.8,17.9,49.2,17.5,48.6,17.6L48.6,17.6L48.6,17.6z"
			/>
		<path class="st0" d="M23.9,62.7c3.5,9.7,9.2,15.7,15.6,15.7c4.7,0,9-3.2,12.4-8.8c0.3-0.5,0.1-1.1-0.4-1.4s-1.1-0.1-1.4,0.4
			c-3,5-6.8,7.8-10.6,7.8c-5.3,0-10.4-5.3-13.6-14.4c-0.2-0.5-0.8-0.8-1.3-0.6S23.7,62.2,23.9,62.7L23.9,62.7L23.9,62.7z M55.8,60.8
			c1.8-5.8,2.8-12.4,2.8-19.4c0-17.3-6.1-32.2-14.7-36.1c-0.5-0.2-1.1,0-1.4,0.5c-0.2,0.5,0,1.1,0.5,1.4
			c7.7,3.4,13.4,17.6,13.4,34.2c0,6.7-0.9,13.2-2.7,18.7c-0.2,0.6,0.1,1.1,0.7,1.3C55,61.7,55.6,61.4,55.8,60.8L55.8,60.8L55.8,60.8
			z"/>
		<path class="st0" d="M75.5,59.8c0-2.8-2.2-5-5-5s-5,2.2-5,5s2.2,5,5,5S75.5,62.6,75.5,59.8L75.5,59.8L75.5,59.8z M73.4,59.8
			c0,1.6-1.3,2.9-2.9,2.9s-2.9-1.3-2.9-2.9c0-1.6,1.3-2.9,2.9-2.9S73.4,58.2,73.4,59.8L73.4,59.8L73.4,59.8z"/>
		<path class="st0" d="M8.5,64.8c2.8,0,5-2.2,5-5s-2.2-5-5-5s-5,2.2-5,5S5.8,64.8,8.5,64.8L8.5,64.8L8.5,64.8z M8.5,62.7
			c-1.6,0-2.9-1.3-2.9-2.9c0-1.6,1.3-2.9,2.9-2.9s2.9,1.3,2.9,2.9C11.4,61.4,10.1,62.7,8.5,62.7L8.5,62.7L8.5,62.7z"/>
		<path class="st0" d="M39.5,10.5c2.8,0,5-2.2,5-5s-2.2-5-5-5c-2.8,0-5,2.2-5,5S36.8,10.5,39.5,10.5L39.5,10.5L39.5,10.5z M39.5,8.4
			c-1.6,0-2.9-1.3-2.9-2.9s1.3-2.9,2.9-2.9c1.6,0,2.9,1.3,2.9,2.9S41.1,8.4,39.5,8.4L39.5,8.4L39.5,8.4z"/>
		<path class="st0" d="M40.3,45c-2,0.4-3.9-0.8-4.3-2.8c-0.4-2,0.8-3.9,2.8-4.3c2-0.4,3.9,0.8,4.3,2.8C43.5,42.7,42.3,44.6,40.3,45
			L40.3,45z"/>
	</g>
</g>
</svg>
