<?xml version="1.0" standalone="no"?>
<!DOCTYPE svg PUBLIC "-//W3C//DTD SVG 20010904//EN"
 "http://www.w3.org/TR/2001/REC-SVG-20010904/DTD/svg10.dtd">
<svg version="1.0" xmlns="http://www.w3.org/2000/svg"
 width="1000.000000pt" height="1000.000000pt" viewBox="0 0 1000.000000 1000.000000"
 preserveAspectRatio="xMidYMid meet">
<metadata>
Created by potrace 1.11, written by Peter Selinger 2001-2013
</metadata>
<g transform="translate(0.000000,1000.000000) scale(0.100000,-0.100000)"
fill="#000000" stroke="none">
<path d="M4672 9984 c-910 -66 -1723 -346 -2472 -852 -1050 -708 -1801 -1811
-2075 -3045 -95 -428 -139 -916 -116 -1295 25 -439 79 -771 186 -1152 466
-1657 1788 -2979 3445 -3445 381 -107 713 -161 1152 -186 473 -28 1050 41
1568 186 1657 466 2979 1788 3445 3445 107 381 161 713 186 1152 18 303 -6
679 -66 1035 -265 1565 -1250 2904 -2670 3628 -603 307 -1235 479 -1946 530
-251 17 -387 17 -637 -1z m488 -1405 c101 -10 106 -12 138 -44 66 -70 28 -126
-144 -217 -523 -274 -1701 -480 -2001 -348 -61 27 -70 51 -39 103 41 68 47 72
161 136 409 226 851 347 1405 385 83 6 361 -3 480 -15z m1025 -307 l110 -57
-1 -65 c0 -40 -7 -77 -18 -98 -26 -51 -118 -116 -286 -201 -193 -99 -296 -140
-628 -251 l-264 -89 151 -75 151 -76 252 91 c336 121 437 162 536 216 121 65
254 156 296 203 31 34 36 47 36 89 0 27 -7 67 -15 90 l-14 42 30 -18 c57 -34
254 -191 359 -287 255 -234 501 -549 633 -812 54 -108 124 -265 183 -412 47
-119 52 -136 42 -165 -46 -134 -265 -305 -619 -483 -49 -24 -89 -49 -89 -54 0
-12 128 -461 133 -466 11 -12 329 149 441 223 97 65 226 195 259 262 23 47 27
50 31 30 30 -128 35 -356 11 -458 -9 -35 -28 -87 -43 -115 -43 -80 -201 -233
-327 -316 -272 -179 -745 -373 -1415 -580 -146 -45 -282 -87 -302 -93 l-38
-12 29 -62 c66 -138 156 -255 356 -462 445 -459 1092 -941 1757 -1309 167 -92
561 -291 748 -377 69 -31 129 -61 133 -65 5 -4 -37 -62 -93 -129 -576 -693
-1326 -1208 -2170 -1491 -155 -52 -427 -130 -455 -130 -6 0 -16 57 -23 138
-43 492 -200 1029 -418 1426 -400 730 -1005 1169 -1744 1267 -135 18 -420 16
-561 -5 -436 -62 -842 -239 -1199 -523 -204 -162 -466 -453 -635 -707 -67
-101 -80 -115 -93 -104 -9 7 -60 66 -114 131 l-98 118 29 58 c16 31 62 113
102 182 351 604 837 1153 1395 1574 l119 90 -60 8 c-540 72 -827 154 -907 260
-63 81 -120 237 -148 402 -6 33 -13 72 -16 88 -5 26 -1 24 78 -36 84 -64 252
-157 263 -146 3 4 -11 113 -32 243 l-37 236 -36 11 c-112 37 -180 89 -237 183
l-36 58 6 217 c15 544 99 901 316 1346 99 202 188 356 194 334 26 -94 32 -104
86 -136 121 -72 377 -100 783 -83 134 5 278 12 320 16 l78 7 81 114 c44 63 79
117 76 119 -2 3 -33 0 -68 -5 -178 -28 -773 -41 -938 -21 -140 18 -255 76
-288 146 l-16 33 48 63 c27 35 81 100 120 146 l70 82 5 -39 c9 -56 35 -90 93
-117 364 -166 1617 -21 2558 296 447 150 748 316 799 441 13 30 8 70 -15 131
-6 16 -3 16 41 -3 27 -11 99 -46 159 -77z m1625 -3655 c154 -27 222 -51 473
-169 315 -146 629 -334 917 -546 135 -100 400 -320 400 -332 0 -18 -98 -288
-150 -414 -55 -132 -207 -447 -232 -479 -13 -18 -16 -18 -66 2 -29 12 -109 46
-177 77 l-125 56 0 172 c0 172 -14 398 -26 429 -18 49 -353 208 -400 190 -19
-7 -75 -111 -151 -280 -41 -92 -76 -169 -77 -171 -4 -4 -374 210 -531 307
-344 215 -541 363 -781 589 -212 200 -264 263 -271 325 -4 36 0 47 26 78 35
42 156 108 251 137 56 17 181 41 285 56 17 2 134 3 260 1 193 -2 253 -7 375
-28z m-4467 -2317 c148 -12 292 -42 421 -87 93 -32 236 -98 236 -108 0 -2 -50
-73 -112 -157 -158 -215 -290 -414 -334 -503 l-37 -75 17 -45 c21 -53 82 -119
158 -169 77 -52 112 -55 169 -17 62 42 255 204 477 401 154 136 185 160 195
147 250 -312 366 -521 470 -843 60 -186 117 -486 117 -616 l0 -41 -242 6
c-1038 26 -2026 381 -2843 1021 -108 85 -269 224 -273 236 -5 14 127 204 202
292 132 155 304 285 511 387 207 103 384 153 600 171 131 11 139 11 268 0z"/>
<path d="M4390 7311 c-349 -77 -611 -346 -671 -687 -35 -203 25 -458 146 -620
121 -161 296 -279 485 -329 164 -42 374 -28 542 36 362 140 589 533 524 907
-59 339 -298 595 -642 687 -94 26 -282 29 -384 6z"/>
<path d="M6212 6412 c-218 -78 -310 -374 -187 -600 61 -113 173 -190 288 -199
343 -28 509 447 248 707 -31 31 -78 66 -106 79 -69 33 -172 38 -243 13z"/>
<path d="M4722 5237 c-69 -22 -132 -127 -116 -194 28 -120 141 -182 246 -135
63 27 100 80 106 146 11 132 -108 224 -236 183z"/>
<path d="M3718 4987 c-70 -8 -88 -13 -88 -26 1 -33 67 -421 73 -427 8 -8 189
15 207 26 11 7 7 47 -19 207 -18 109 -35 206 -37 216 -6 19 -6 19 -136 4z"/>
<path d="M2073 4953 c3 -16 20 -123 38 -240 22 -140 37 -214 46 -217 7 -3 36
-8 63 -12 50 -7 51 -6 46 17 -3 13 -20 112 -36 219 -17 107 -33 205 -35 217
-4 16 -16 24 -55 32 -71 15 -73 15 -67 -16z"/>
<path d="M2306 4914 c3 -16 20 -123 38 -237 18 -114 36 -210 39 -213 16 -16
318 -24 529 -14 211 10 485 34 493 42 5 4 -64 441 -70 446 -2 3 -105 -1 -228
-8 -215 -12 -629 -9 -755 6 l-52 7 6 -29z"/>
</g>
</svg>
