<?xml version="1.0" encoding="utf-8"?>
<!-- Generator: Adobe Illustrator 17.0.0, SVG Export Plug-In . SVG Version: 6.00 Build 0)  -->
<!DOCTYPE svg PUBLIC "-//W3C//DTD SVG 1.1//EN" "http://www.w3.org/Graphics/SVG/1.1/DTD/svg11.dtd">
<svg version="1.1" id="Layer_1" xmlns:sketch="http://www.bohemiancoding.com/sketch/ns"
	 xmlns="http://www.w3.org/2000/svg" xmlns:xlink="http://www.w3.org/1999/xlink" x="0px" y="0px" width="114px" height="34px"
	 viewBox="0 0 114 34" enable-background="new 0 0 114 34" xml:space="preserve">
<title>Pebble_Logo</title>
<desc>Created with Sketch.</desc>
<g id="Page-1" sketch:type="MSPage">
	<g id="Pebble_Logo" transform="translate(0.000000, 1.000000)" sketch:type="MSLayerGroup">
		<g id="Group" sketch:type="MSShapeGroup">
			<path id="Shape" fill="#FF4500" d="M0.1,8.2H2v4.3c1.7-2.5,4.1-4.8,8-4.8c4.7,0,9.4,3.8,9.4,10.1v0.1
				c0,6.3-4.8,10.199-9.4,10.199c-3.9,0-6.4-2.199-8-4.6v10.3H0.1V8.2L0.1,8.2z M17.3,18L17.3,18c0-5.2-3.5-8.4-7.601-8.4
				C5.7,9.6,1.8,13,1.8,17.9V18c0,5,3.899,8.3,7.899,8.3C13.9,26.2,17.3,23.2,17.3,18L17.3,18z"/>
			<path id="Shape_1_" fill="#FF4500" d="M46.5,23.4v4.2h-1.9V-0.2h1.9v12.7c1.7-2.5,4.1-4.8,8-4.8c4.699,0,9.4,3.8,9.4,10.1v0.1
				c0,6.3-4.801,10.199-9.4,10.199C50.6,28,48.1,25.8,46.5,23.4L46.5,23.4z M61.9,18L61.9,18c0-5.2-3.5-8.4-7.6-8.4
				c-4,0-7.9,3.4-7.9,8.3V18c0,5,3.9,8.3,7.9,8.3C58.5,26.2,61.9,23.2,61.9,18L61.9,18z"/>
			<path id="Shape_2_" fill="#FF4500" d="M69.5,23.4v4.2h-1.9V-0.2h1.9v12.7c1.699-2.5,4.1-4.8,8-4.8c4.699,0,9.4,3.8,9.4,10.1v0.1
				c0,6.3-4.801,10.199-9.4,10.199C73.6,28,71.1,25.8,69.5,23.4L69.5,23.4z M84.9,18L84.9,18c0-5.2-3.5-8.4-7.6-8.4
				c-4,0-7.9,3.4-7.9,8.3V18c0,5,3.9,8.3,7.9,8.3C81.5,26.2,84.9,23.2,84.9,18L84.9,18z"/>
			<path id="Shape_3_" fill="#FF4500" d="M90.6-0.2h1.9v27.7h-1.9V-0.2L90.6-0.2z"/>
			<path id="Shape_4_" fill="#FF4500" d="M25.2,19.9c0.8,4.1,4,6.399,7.4,6.399c3,0,5.1-1.3,6.7-3l1.3,1.101
				c-2,2.1-4.3,3.699-8,3.699C27.4,28,23,24,23,17.9v-0.1c0-5.6,4-10.1,9.2-10.1c4.4,0,7.5,2.9,8.5,7.1c0.101,0.3,0.101,0.5,0.2,0.8
				L25.2,19.9L25.2,19.9z M38.7,14.5c-0.899-2.8-3-5.1-6.5-5.1c-3.8,0-6.8,3.2-7.1,7.5v1.2L38.7,14.5L38.7,14.5z"/>
			<path id="Shape_5_" fill="#FF4500" d="M98.301,19.9c0.799,4.1,4,6.399,7.398,6.399c3,0,5.102-1.3,6.701-3l1.299,1.101
				c-2,2.1-4.299,3.699-8,3.699c-5.1,0-9.5-4.1-9.5-10.1v-0.1c0-5.601,4-10.101,9.201-10.101c4.4,0,7.5,2.9,8.5,7.1
				c0.1,0.3,0.1,0.5,0.199,0.8L98.301,19.9L98.301,19.9z M111.801,14.5c-0.9-2.8-3-5.1-6.5-5.1c-3.801,0-6.801,3.2-7.102,7.5v1.2
				L111.801,14.5L111.801,14.5z"/>
		</g>
	</g>
</g>
</svg>
